<svg width="36" height="36" viewBox="0 0 36 36" fill="none" xmlns="http://www.w3.org/2000/svg">
<path d="M28.5 11C30.433 11 32 9.433 32 7.5C32 5.567 30.433 4 28.5 4C26.567 4 25 5.567 25 7.5C25 9.433 26.567 11 28.5 11Z" fill="#FF0028"/>
<path d="M34.266 25.7654C34.2938 25.7099 34.3215 25.6544 34.3493 25.592C34.384 25.5226 34.4117 25.4463 34.4464 25.3769C34.7585 24.6901 35.029 23.9756 35.244 23.2471C36.0139 20.7844 36.1942 18.1759 35.792 15.4218L29.8617 16.282C29.9519 16.8994 29.9796 17.5099 29.9796 18.1065C29.9796 18.4604 29.9588 18.8142 29.9311 19.161C29.9311 19.2027 29.9241 19.2443 29.9172 19.2859C29.9033 19.4246 29.8756 19.5634 29.8548 19.7021C29.8062 20.056 29.7438 20.4028 29.6675 20.7428C29.6606 20.7774 29.6467 20.8121 29.6398 20.8468C29.5982 21.0202 29.5427 21.1937 29.4941 21.3602C29.0918 22.6783 28.4537 23.9409 27.559 25.1411C27.3856 25.3769 27.1983 25.585 27.018 25.807C26.8307 26.0221 26.6434 26.2302 26.4423 26.4383C26.255 26.6257 26.0539 26.7991 25.8597 26.9725C25.6585 27.146 25.4643 27.3194 25.2562 27.479C24.0633 28.3878 22.8079 29.0399 21.497 29.463C21.3236 29.5116 21.1571 29.574 20.9768 29.6157C20.9352 29.6226 20.8935 29.6365 20.8519 29.6434C20.519 29.7197 20.1722 29.7891 19.8185 29.8446C19.7491 29.8585 19.6797 29.8654 19.6034 29.8724C19.3538 29.907 19.1041 29.9279 18.8544 29.9417C18.6116 29.9556 18.3619 29.9764 18.1122 29.9764C18.0775 29.9764 18.0429 29.9764 18.0082 29.9764H17.9041C17.6683 29.9764 17.4394 29.9556 17.2036 29.9417C16.9609 29.9279 16.725 29.907 16.4823 29.8793C16.4268 29.8724 16.3644 29.8654 16.3089 29.8515C15.9413 29.796 15.5737 29.7336 15.2199 29.6573C14.8939 29.581 14.5749 29.4839 14.2558 29.3867C14.2003 29.3659 14.1379 29.3521 14.0824 29.3312C14.0269 29.3104 13.9645 29.2896 13.909 29.2688C13.8605 29.248 13.8119 29.2272 13.7564 29.2064C12.7577 28.8179 11.8005 28.2837 10.878 27.6108C10.8225 27.5691 10.767 27.5275 10.7116 27.4859C10.5382 27.3541 10.3717 27.2153 10.2052 27.0766C9.99716 26.8962 9.78908 26.7089 9.581 26.5077C9.53938 26.4661 9.49083 26.4175 9.44922 26.3759C9.30356 26.2302 9.17871 26.0776 9.04 25.9319C8.84579 25.7099 8.65158 25.4879 8.46431 25.2451C7.79153 24.3641 7.26439 23.4414 6.86904 22.491C6.52918 21.6238 6.27949 20.7011 6.13383 19.716V19.7021C6.09222 19.4177 6.07141 19.1402 6.0506 18.8558C6.02979 18.5713 6.01592 18.2939 6.01592 18.0025C6.01592 18.0025 6.01592 17.9955 6.01592 17.9886C6.01592 17.725 6.03673 17.4614 6.0506 17.2047C6.07141 16.9411 6.08528 16.6844 6.11996 16.4138C6.27255 15.2414 6.57773 14.1522 7.00776 13.1394C7.02857 13.0908 7.04938 13.0353 7.07712 12.9798C7.09793 12.9313 7.11874 12.8896 7.13955 12.8411C7.16035 12.7994 7.18116 12.7578 7.20891 12.7093C7.52796 12.078 7.9025 11.4536 8.3464 10.857C8.37414 10.8154 8.40189 10.7807 8.42963 10.739C8.58916 10.524 8.76256 10.3297 8.92902 10.1286C9.10242 9.9343 9.26888 9.74006 9.45615 9.54581C9.45615 9.54581 9.45615 9.54581 9.46309 9.53887C9.49083 9.50418 9.52551 9.47644 9.56019 9.44175C9.73359 9.26831 9.91393 9.10875 10.0943 8.94919C10.2815 8.78963 10.4619 8.62314 10.663 8.47051C10.6977 8.44276 10.7324 8.42195 10.7601 8.3942C11.3566 7.94327 11.9739 7.55478 12.6051 7.23566C12.6536 7.21485 12.6952 7.1871 12.7438 7.16629C12.7923 7.14547 12.834 7.12466 12.8825 7.10385C12.9311 7.08304 12.9796 7.06222 13.0282 7.04141C14.0339 6.59742 15.1159 6.28524 16.2811 6.11874C16.8429 6.04243 17.4117 5.99387 17.9943 5.99387C18.5145 5.99387 19.0416 6.02855 19.5757 6.09793L20.3733 0.173399C17.4394 -0.215094 14.672 0.0485263 12.071 0.971199C11.9808 0.998948 11.8976 1.03364 11.8074 1.06138C11.745 1.0822 11.6757 1.10995 11.6132 1.1377C10.7185 1.47069 9.8515 1.88693 9.01225 2.37255C8.80417 2.49049 8.60303 2.6223 8.39495 2.74717C8.21462 2.85817 8.04122 2.9761 7.86782 3.10098C7.48634 3.3646 7.1118 3.64209 6.7442 3.9404C6.6679 4.00284 6.59161 4.06527 6.52225 4.12077C6.25868 4.34277 5.99511 4.5717 5.73848 4.80757C5.67606 4.87001 5.6067 4.93245 5.54428 4.99488C5.44717 5.08507 5.35701 5.16832 5.2599 5.2585C5.12118 5.39725 4.99634 5.536 4.86455 5.68168C4.80907 5.74412 4.74664 5.80656 4.69116 5.86899C4.67035 5.88981 4.6426 5.91756 4.6218 5.93837C4.43453 6.13955 4.26113 6.35461 4.08079 6.56273C4.0045 6.65292 3.93514 6.74311 3.86578 6.82635C3.5814 7.1871 3.30397 7.55478 3.04734 7.9294C2.85313 8.21383 2.66586 8.5052 2.48552 8.79657C2.40923 8.92144 2.33987 9.04632 2.27051 9.17813C1.76418 10.0661 1.34109 10.9888 1.00817 11.9461C0.300699 13.9094 -0.0322267 15.9629 0.00245303 18.0996C-0.0114189 20.0768 0.293763 21.9707 0.917999 23.7744C1.27173 24.8427 1.73644 25.8695 2.29825 26.8546C3.02653 28.1519 3.9282 29.3451 5.00327 30.4343C6.50837 32.0438 8.21462 33.2925 10.1012 34.2082C10.226 34.2707 10.3509 34.3331 10.4827 34.3886C10.4965 34.3886 10.5035 34.3955 10.5174 34.4025C11.1693 34.7008 11.8352 34.9575 12.5149 35.1725C14.3044 35.7553 16.1632 36.0258 18.0983 35.9981C19.8393 36.005 21.5247 35.7691 23.1408 35.2766C23.2171 35.2558 23.2934 35.235 23.3697 35.2072C23.4321 35.1864 23.4876 35.1656 23.55 35.1448C24.2783 34.9158 24.9857 34.6383 25.6724 34.3123C25.6863 34.3053 25.7002 34.2984 25.721 34.2915C26.0469 34.1319 26.366 33.9654 26.6851 33.785C28.0376 33.0427 29.2791 32.1131 30.4166 30.9893C32.0674 29.463 33.3505 27.7148 34.273 25.7654H34.266Z" fill="white"/>
</svg>
